<mxfile host="app.diagrams.net" modified="2024-03-26T17:06:16.380Z" agent="Mozilla/5.0 (Windows NT 10.0; Win64; x64) AppleWebKit/537.36 (KHTML, like Gecko) Chrome/122.0.0.0 Safari/537.36" etag="oYh8agWihMwXoMHbaUH2" version="24.1.0" type="device">
  <diagram name="Page-1" id="ff44883e-f642-bcb2-894b-16b3d25a3f0b">
    <mxGraphModel dx="1674" dy="780" grid="1" gridSize="10" guides="1" tooltips="1" connect="1" arrows="1" fold="1" page="1" pageScale="1.5" pageWidth="1169" pageHeight="826" background="none" math="0" shadow="0">
      <root>
        <mxCell id="0" style=";html=1;" />
        <mxCell id="1" style=";html=1;" parent="0" />
        <mxCell id="pyP9cMPiVNIEUNAZ6Pnh-1" value="" style="rounded=0;whiteSpace=wrap;html=1;" parent="1" vertex="1">
          <mxGeometry x="20" y="130" width="120" height="90" as="geometry" />
        </mxCell>
        <mxCell id="pyP9cMPiVNIEUNAZ6Pnh-2" value="Project Description v0.1" style="rounded=0;whiteSpace=wrap;html=1;" parent="1" vertex="1">
          <mxGeometry x="20" y="130" width="120" height="30" as="geometry" />
        </mxCell>
        <mxCell id="pyP9cMPiVNIEUNAZ6Pnh-3" value="1" style="rounded=0;whiteSpace=wrap;html=1;" parent="1" vertex="1">
          <mxGeometry x="20" y="160" width="30" height="30" as="geometry" />
        </mxCell>
        <mxCell id="pyP9cMPiVNIEUNAZ6Pnh-5" value="3" style="whiteSpace=wrap;html=1;aspect=fixed;" parent="1" vertex="1">
          <mxGeometry x="49.5" y="160" width="30" height="30" as="geometry" />
        </mxCell>
        <mxCell id="pyP9cMPiVNIEUNAZ6Pnh-6" value="5" style="whiteSpace=wrap;html=1;aspect=fixed;" parent="1" vertex="1">
          <mxGeometry x="80" y="160" width="30" height="30" as="geometry" />
        </mxCell>
        <mxCell id="pyP9cMPiVNIEUNAZ6Pnh-7" value="10" style="whiteSpace=wrap;html=1;aspect=fixed;" parent="1" vertex="1">
          <mxGeometry x="110" y="160" width="30" height="30" as="geometry" />
        </mxCell>
        <mxCell id="pyP9cMPiVNIEUNAZ6Pnh-9" value="28 Feb 2024" style="rounded=0;whiteSpace=wrap;html=1;" parent="1" vertex="1">
          <mxGeometry x="20" y="190" width="60" height="30" as="geometry" />
        </mxCell>
        <mxCell id="pyP9cMPiVNIEUNAZ6Pnh-10" value="3 March 2024" style="rounded=0;whiteSpace=wrap;html=1;" parent="1" vertex="1">
          <mxGeometry x="80" y="190" width="60" height="30" as="geometry" />
        </mxCell>
        <mxCell id="pyP9cMPiVNIEUNAZ6Pnh-203" value="&#xa;&lt;span style=&quot;color: rgb(0, 0, 0); font-family: Helvetica; font-size: 12px; font-style: normal; font-variant-ligatures: normal; font-variant-caps: normal; font-weight: 400; letter-spacing: normal; orphans: 2; text-align: center; text-indent: 0px; text-transform: none; widows: 2; word-spacing: 0px; -webkit-text-stroke-width: 0px; background-color: rgb(251, 251, 251); text-decoration-thickness: initial; text-decoration-style: initial; text-decoration-color: initial; float: none; display: inline !important;&quot;&gt;6 April 2024&lt;/span&gt;&#xa;&#xa;" style="rounded=0;whiteSpace=wrap;html=1;" parent="1" vertex="1">
          <mxGeometry x="970" y="130" width="120" height="90" as="geometry" />
        </mxCell>
        <mxCell id="pyP9cMPiVNIEUNAZ6Pnh-204" value="Sequence Diagrams v0.1" style="rounded=0;whiteSpace=wrap;html=1;" parent="1" vertex="1">
          <mxGeometry x="970" y="130" width="120" height="30" as="geometry" />
        </mxCell>
        <mxCell id="pyP9cMPiVNIEUNAZ6Pnh-205" value="8" style="rounded=0;whiteSpace=wrap;html=1;" parent="1" vertex="1">
          <mxGeometry x="970" y="160" width="30" height="30" as="geometry" />
        </mxCell>
        <mxCell id="pyP9cMPiVNIEUNAZ6Pnh-206" value="6" style="whiteSpace=wrap;html=1;aspect=fixed;" parent="1" vertex="1">
          <mxGeometry x="999.5" y="160" width="30" height="30" as="geometry" />
        </mxCell>
        <mxCell id="pyP9cMPiVNIEUNAZ6Pnh-207" value="8" style="whiteSpace=wrap;html=1;aspect=fixed;" parent="1" vertex="1">
          <mxGeometry x="1030" y="160" width="30" height="30" as="geometry" />
        </mxCell>
        <mxCell id="pyP9cMPiVNIEUNAZ6Pnh-208" value="15" style="whiteSpace=wrap;html=1;aspect=fixed;" parent="1" vertex="1">
          <mxGeometry x="1060" y="160" width="30" height="30" as="geometry" />
        </mxCell>
        <mxCell id="pyP9cMPiVNIEUNAZ6Pnh-210" value="16 April 2024" style="rounded=0;whiteSpace=wrap;html=1;" parent="1" vertex="1">
          <mxGeometry x="1030" y="190" width="60" height="30" as="geometry" />
        </mxCell>
        <mxCell id="pyP9cMPiVNIEUNAZ6Pnh-213" value="" style="rounded=0;whiteSpace=wrap;html=1;" parent="1" vertex="1">
          <mxGeometry x="190" y="20" width="120" height="90" as="geometry" />
        </mxCell>
        <mxCell id="pyP9cMPiVNIEUNAZ6Pnh-214" value="Project Plan v0.1" style="rounded=0;whiteSpace=wrap;html=1;" parent="1" vertex="1">
          <mxGeometry x="190" y="20" width="120" height="30" as="geometry" />
        </mxCell>
        <mxCell id="pyP9cMPiVNIEUNAZ6Pnh-215" value="2" style="rounded=0;whiteSpace=wrap;html=1;" parent="1" vertex="1">
          <mxGeometry x="190" y="50" width="30" height="30" as="geometry" />
        </mxCell>
        <mxCell id="pyP9cMPiVNIEUNAZ6Pnh-216" value="5" style="whiteSpace=wrap;html=1;aspect=fixed;" parent="1" vertex="1">
          <mxGeometry x="219.5" y="50" width="30" height="30" as="geometry" />
        </mxCell>
        <mxCell id="pyP9cMPiVNIEUNAZ6Pnh-217" value="8" style="whiteSpace=wrap;html=1;aspect=fixed;" parent="1" vertex="1">
          <mxGeometry x="250" y="50" width="30" height="30" as="geometry" />
        </mxCell>
        <mxCell id="pyP9cMPiVNIEUNAZ6Pnh-218" value="13" style="whiteSpace=wrap;html=1;aspect=fixed;" parent="1" vertex="1">
          <mxGeometry x="280" y="50" width="30" height="30" as="geometry" />
        </mxCell>
        <mxCell id="pyP9cMPiVNIEUNAZ6Pnh-219" value="4 March 2024" style="rounded=0;whiteSpace=wrap;html=1;" parent="1" vertex="1">
          <mxGeometry x="190" y="80" width="60" height="30" as="geometry" />
        </mxCell>
        <mxCell id="pyP9cMPiVNIEUNAZ6Pnh-220" value="11 March 2024" style="rounded=0;whiteSpace=wrap;html=1;" parent="1" vertex="1">
          <mxGeometry x="250" y="80" width="60" height="30" as="geometry" />
        </mxCell>
        <mxCell id="pyP9cMPiVNIEUNAZ6Pnh-221" value="" style="rounded=0;whiteSpace=wrap;html=1;" parent="1" vertex="1">
          <mxGeometry x="190" y="130" width="120" height="90" as="geometry" />
        </mxCell>
        <mxCell id="pyP9cMPiVNIEUNAZ6Pnh-222" value="Team Plan v0.1" style="rounded=0;whiteSpace=wrap;html=1;" parent="1" vertex="1">
          <mxGeometry x="190" y="130" width="120" height="30" as="geometry" />
        </mxCell>
        <mxCell id="pyP9cMPiVNIEUNAZ6Pnh-223" value="3" style="rounded=0;whiteSpace=wrap;html=1;" parent="1" vertex="1">
          <mxGeometry x="190" y="160" width="30" height="30" as="geometry" />
        </mxCell>
        <mxCell id="pyP9cMPiVNIEUNAZ6Pnh-224" value="5" style="whiteSpace=wrap;html=1;aspect=fixed;" parent="1" vertex="1">
          <mxGeometry x="219.5" y="160" width="30" height="30" as="geometry" />
        </mxCell>
        <mxCell id="pyP9cMPiVNIEUNAZ6Pnh-225" value="10" style="whiteSpace=wrap;html=1;aspect=fixed;" parent="1" vertex="1">
          <mxGeometry x="250" y="160" width="30" height="30" as="geometry" />
        </mxCell>
        <mxCell id="pyP9cMPiVNIEUNAZ6Pnh-226" value="15" style="whiteSpace=wrap;html=1;aspect=fixed;" parent="1" vertex="1">
          <mxGeometry x="280" y="160" width="30" height="30" as="geometry" />
        </mxCell>
        <mxCell id="pyP9cMPiVNIEUNAZ6Pnh-227" value="4 March 2024" style="rounded=0;whiteSpace=wrap;html=1;" parent="1" vertex="1">
          <mxGeometry x="190" y="190" width="60" height="30" as="geometry" />
        </mxCell>
        <mxCell id="pyP9cMPiVNIEUNAZ6Pnh-228" value="13 March 2024" style="rounded=0;whiteSpace=wrap;html=1;" parent="1" vertex="1">
          <mxGeometry x="250" y="190" width="60" height="30" as="geometry" />
        </mxCell>
        <mxCell id="pyP9cMPiVNIEUNAZ6Pnh-229" value="" style="rounded=0;whiteSpace=wrap;html=1;" parent="1" vertex="1">
          <mxGeometry x="190" y="240" width="120" height="90" as="geometry" />
        </mxCell>
        <mxCell id="pyP9cMPiVNIEUNAZ6Pnh-230" value="Risk Assessment v0.1" style="rounded=0;whiteSpace=wrap;html=1;" parent="1" vertex="1">
          <mxGeometry x="190" y="240" width="120" height="30" as="geometry" />
        </mxCell>
        <mxCell id="pyP9cMPiVNIEUNAZ6Pnh-231" value="4" style="rounded=0;whiteSpace=wrap;html=1;" parent="1" vertex="1">
          <mxGeometry x="190" y="270" width="30" height="30" as="geometry" />
        </mxCell>
        <mxCell id="pyP9cMPiVNIEUNAZ6Pnh-232" value="3" style="whiteSpace=wrap;html=1;aspect=fixed;" parent="1" vertex="1">
          <mxGeometry x="219.5" y="270" width="30" height="30" as="geometry" />
        </mxCell>
        <mxCell id="pyP9cMPiVNIEUNAZ6Pnh-233" value="5" style="whiteSpace=wrap;html=1;aspect=fixed;" parent="1" vertex="1">
          <mxGeometry x="250" y="270" width="30" height="30" as="geometry" />
        </mxCell>
        <mxCell id="pyP9cMPiVNIEUNAZ6Pnh-234" value="7" style="whiteSpace=wrap;html=1;aspect=fixed;" parent="1" vertex="1">
          <mxGeometry x="280" y="270" width="30" height="30" as="geometry" />
        </mxCell>
        <mxCell id="pyP9cMPiVNIEUNAZ6Pnh-235" value="4 March 2024" style="rounded=0;whiteSpace=wrap;html=1;" parent="1" vertex="1">
          <mxGeometry x="190" y="300" width="60" height="30" as="geometry" />
        </mxCell>
        <mxCell id="pyP9cMPiVNIEUNAZ6Pnh-236" value="8 March 2024" style="rounded=0;whiteSpace=wrap;html=1;" parent="1" vertex="1">
          <mxGeometry x="250" y="300" width="60" height="30" as="geometry" />
        </mxCell>
        <mxCell id="pyP9cMPiVNIEUNAZ6Pnh-237" value="" style="rounded=0;whiteSpace=wrap;html=1;" parent="1" vertex="1">
          <mxGeometry x="360" y="130" width="120" height="90" as="geometry" />
        </mxCell>
        <mxCell id="pyP9cMPiVNIEUNAZ6Pnh-238" value="Use Cases v0.1" style="rounded=0;whiteSpace=wrap;html=1;" parent="1" vertex="1">
          <mxGeometry x="360" y="130" width="120" height="30" as="geometry" />
        </mxCell>
        <mxCell id="pyP9cMPiVNIEUNAZ6Pnh-239" value="5" style="rounded=0;whiteSpace=wrap;html=1;" parent="1" vertex="1">
          <mxGeometry x="360" y="160" width="30" height="30" as="geometry" />
        </mxCell>
        <mxCell id="pyP9cMPiVNIEUNAZ6Pnh-240" value="5" style="whiteSpace=wrap;html=1;aspect=fixed;" parent="1" vertex="1">
          <mxGeometry x="389.5" y="160" width="30" height="30" as="geometry" />
        </mxCell>
        <mxCell id="pyP9cMPiVNIEUNAZ6Pnh-241" value="10" style="whiteSpace=wrap;html=1;aspect=fixed;" parent="1" vertex="1">
          <mxGeometry x="420" y="160" width="30" height="30" as="geometry" />
        </mxCell>
        <mxCell id="pyP9cMPiVNIEUNAZ6Pnh-242" value="15" style="whiteSpace=wrap;html=1;aspect=fixed;" parent="1" vertex="1">
          <mxGeometry x="450" y="160" width="30" height="30" as="geometry" />
        </mxCell>
        <mxCell id="pyP9cMPiVNIEUNAZ6Pnh-243" value="14 March 2024" style="rounded=0;whiteSpace=wrap;html=1;" parent="1" vertex="1">
          <mxGeometry x="360" y="190" width="60" height="30" as="geometry" />
        </mxCell>
        <mxCell id="pyP9cMPiVNIEUNAZ6Pnh-244" value="23 March 2024" style="rounded=0;whiteSpace=wrap;html=1;" parent="1" vertex="1">
          <mxGeometry x="420" y="190" width="60" height="30" as="geometry" />
        </mxCell>
        <mxCell id="pyP9cMPiVNIEUNAZ6Pnh-245" value="" style="rounded=0;whiteSpace=wrap;html=1;" parent="1" vertex="1">
          <mxGeometry x="530" y="130" width="120" height="90" as="geometry" />
        </mxCell>
        <mxCell id="pyP9cMPiVNIEUNAZ6Pnh-246" value="Domain Model v0.1" style="rounded=0;whiteSpace=wrap;html=1;" parent="1" vertex="1">
          <mxGeometry x="530" y="130" width="120" height="30" as="geometry" />
        </mxCell>
        <mxCell id="pyP9cMPiVNIEUNAZ6Pnh-247" value="6" style="rounded=0;whiteSpace=wrap;html=1;" parent="1" vertex="1">
          <mxGeometry x="530" y="160" width="30" height="30" as="geometry" />
        </mxCell>
        <mxCell id="pyP9cMPiVNIEUNAZ6Pnh-248" value="3" style="whiteSpace=wrap;html=1;aspect=fixed;" parent="1" vertex="1">
          <mxGeometry x="559.5" y="160" width="30" height="30" as="geometry" />
        </mxCell>
        <mxCell id="pyP9cMPiVNIEUNAZ6Pnh-249" value="7" style="whiteSpace=wrap;html=1;aspect=fixed;" parent="1" vertex="1">
          <mxGeometry x="590" y="160" width="30" height="30" as="geometry" />
        </mxCell>
        <mxCell id="pyP9cMPiVNIEUNAZ6Pnh-250" value="9" style="whiteSpace=wrap;html=1;aspect=fixed;" parent="1" vertex="1">
          <mxGeometry x="620" y="160" width="30" height="30" as="geometry" />
        </mxCell>
        <mxCell id="pyP9cMPiVNIEUNAZ6Pnh-251" value="24 March 2024" style="rounded=0;whiteSpace=wrap;html=1;" parent="1" vertex="1">
          <mxGeometry x="530" y="190" width="60" height="30" as="geometry" />
        </mxCell>
        <mxCell id="pyP9cMPiVNIEUNAZ6Pnh-252" value="30 March 2024" style="rounded=0;whiteSpace=wrap;html=1;" parent="1" vertex="1">
          <mxGeometry x="590" y="190" width="60" height="30" as="geometry" />
        </mxCell>
        <mxCell id="pyP9cMPiVNIEUNAZ6Pnh-253" value="&lt;font style=&quot;font-size: 10px;&quot;&gt;1o Παραδοτέο&lt;/font&gt;" style="rhombus;whiteSpace=wrap;html=1;fillColor=#F3FF4F;" parent="1" vertex="1">
          <mxGeometry x="694.5" y="135" width="80" height="80" as="geometry" />
        </mxCell>
        <mxCell id="pyP9cMPiVNIEUNAZ6Pnh-254" value="" style="endArrow=classic;html=1;rounded=0;exitX=1;exitY=0.5;exitDx=0;exitDy=0;entryX=0;entryY=0.5;entryDx=0;entryDy=0;strokeColor=#000000;" parent="1" source="pyP9cMPiVNIEUNAZ6Pnh-7" target="pyP9cMPiVNIEUNAZ6Pnh-215" edge="1">
          <mxGeometry width="50" height="50" relative="1" as="geometry">
            <mxPoint x="490" y="160" as="sourcePoint" />
            <mxPoint x="540" y="110" as="targetPoint" />
          </mxGeometry>
        </mxCell>
        <mxCell id="pyP9cMPiVNIEUNAZ6Pnh-256" value="" style="endArrow=classic;html=1;rounded=0;exitX=1;exitY=0.5;exitDx=0;exitDy=0;entryX=0;entryY=0.5;entryDx=0;entryDy=0;strokeColor=#F50000;" parent="1" source="pyP9cMPiVNIEUNAZ6Pnh-7" target="pyP9cMPiVNIEUNAZ6Pnh-223" edge="1">
          <mxGeometry width="50" height="50" relative="1" as="geometry">
            <mxPoint x="490" y="160" as="sourcePoint" />
            <mxPoint x="540" y="110" as="targetPoint" />
          </mxGeometry>
        </mxCell>
        <mxCell id="pyP9cMPiVNIEUNAZ6Pnh-257" value="" style="endArrow=classic;html=1;rounded=0;exitX=1;exitY=0.5;exitDx=0;exitDy=0;entryX=0;entryY=0.5;entryDx=0;entryDy=0;" parent="1" source="pyP9cMPiVNIEUNAZ6Pnh-7" target="pyP9cMPiVNIEUNAZ6Pnh-231" edge="1">
          <mxGeometry width="50" height="50" relative="1" as="geometry">
            <mxPoint x="490" y="160" as="sourcePoint" />
            <mxPoint x="540" y="110" as="targetPoint" />
          </mxGeometry>
        </mxCell>
        <mxCell id="pyP9cMPiVNIEUNAZ6Pnh-258" value="" style="endArrow=classic;html=1;rounded=0;exitX=1;exitY=0.25;exitDx=0;exitDy=0;entryX=0;entryY=0.5;entryDx=0;entryDy=0;" parent="1" source="pyP9cMPiVNIEUNAZ6Pnh-234" target="pyP9cMPiVNIEUNAZ6Pnh-239" edge="1">
          <mxGeometry width="50" height="50" relative="1" as="geometry">
            <mxPoint x="490" y="160" as="sourcePoint" />
            <mxPoint x="540" y="110" as="targetPoint" />
          </mxGeometry>
        </mxCell>
        <mxCell id="pyP9cMPiVNIEUNAZ6Pnh-259" value="" style="endArrow=classic;html=1;rounded=0;exitX=1;exitY=0.5;exitDx=0;exitDy=0;entryX=0;entryY=0.5;entryDx=0;entryDy=0;strokeColor=#000000;" parent="1" source="pyP9cMPiVNIEUNAZ6Pnh-218" target="pyP9cMPiVNIEUNAZ6Pnh-239" edge="1">
          <mxGeometry width="50" height="50" relative="1" as="geometry">
            <mxPoint x="490" y="160" as="sourcePoint" />
            <mxPoint x="540" y="110" as="targetPoint" />
          </mxGeometry>
        </mxCell>
        <mxCell id="pyP9cMPiVNIEUNAZ6Pnh-260" value="" style="endArrow=classic;html=1;rounded=0;exitX=1;exitY=0.5;exitDx=0;exitDy=0;entryX=0;entryY=0.5;entryDx=0;entryDy=0;strokeColor=#FF0000;" parent="1" source="pyP9cMPiVNIEUNAZ6Pnh-226" target="pyP9cMPiVNIEUNAZ6Pnh-239" edge="1">
          <mxGeometry width="50" height="50" relative="1" as="geometry">
            <mxPoint x="490" y="160" as="sourcePoint" />
            <mxPoint x="540" y="110" as="targetPoint" />
          </mxGeometry>
        </mxCell>
        <mxCell id="pyP9cMPiVNIEUNAZ6Pnh-261" value="" style="endArrow=classic;html=1;rounded=0;exitX=1;exitY=0.5;exitDx=0;exitDy=0;entryX=0;entryY=0.5;entryDx=0;entryDy=0;strokeColor=#FF0000;" parent="1" source="pyP9cMPiVNIEUNAZ6Pnh-242" target="pyP9cMPiVNIEUNAZ6Pnh-247" edge="1">
          <mxGeometry width="50" height="50" relative="1" as="geometry">
            <mxPoint x="490" y="160" as="sourcePoint" />
            <mxPoint x="540" y="110" as="targetPoint" />
          </mxGeometry>
        </mxCell>
        <mxCell id="pyP9cMPiVNIEUNAZ6Pnh-262" value="" style="endArrow=classic;html=1;rounded=0;exitX=1;exitY=0.5;exitDx=0;exitDy=0;entryX=0;entryY=0.5;entryDx=0;entryDy=0;strokeColor=#FF0000;" parent="1" source="pyP9cMPiVNIEUNAZ6Pnh-250" target="pyP9cMPiVNIEUNAZ6Pnh-253" edge="1">
          <mxGeometry width="50" height="50" relative="1" as="geometry">
            <mxPoint x="490" y="160" as="sourcePoint" />
            <mxPoint x="540" y="110" as="targetPoint" />
          </mxGeometry>
        </mxCell>
        <mxCell id="pyP9cMPiVNIEUNAZ6Pnh-263" value="31 March 2024" style="text;html=1;align=center;verticalAlign=middle;resizable=0;points=[];autosize=1;strokeColor=none;fillColor=none;" parent="1" vertex="1">
          <mxGeometry x="684.5" y="110" width="100" height="30" as="geometry" />
        </mxCell>
        <mxCell id="pyP9cMPiVNIEUNAZ6Pnh-264" value="" style="rounded=0;whiteSpace=wrap;html=1;" parent="1" vertex="1">
          <mxGeometry x="799" y="130" width="120" height="90" as="geometry" />
        </mxCell>
        <mxCell id="pyP9cMPiVNIEUNAZ6Pnh-265" value="Robustness Diagrams v0.1" style="rounded=0;whiteSpace=wrap;html=1;" parent="1" vertex="1">
          <mxGeometry x="799" y="130" width="120" height="30" as="geometry" />
        </mxCell>
        <mxCell id="pyP9cMPiVNIEUNAZ6Pnh-266" value="9" style="rounded=0;whiteSpace=wrap;html=1;" parent="1" vertex="1">
          <mxGeometry x="799" y="160" width="30" height="30" as="geometry" />
        </mxCell>
        <mxCell id="pyP9cMPiVNIEUNAZ6Pnh-267" value="6" style="whiteSpace=wrap;html=1;aspect=fixed;" parent="1" vertex="1">
          <mxGeometry x="828.5" y="160" width="30" height="30" as="geometry" />
        </mxCell>
        <mxCell id="pyP9cMPiVNIEUNAZ6Pnh-268" value="8" style="whiteSpace=wrap;html=1;aspect=fixed;" parent="1" vertex="1">
          <mxGeometry x="859" y="160" width="30" height="30" as="geometry" />
        </mxCell>
        <mxCell id="pyP9cMPiVNIEUNAZ6Pnh-269" value="15" style="whiteSpace=wrap;html=1;aspect=fixed;" parent="1" vertex="1">
          <mxGeometry x="889" y="160" width="30" height="30" as="geometry" />
        </mxCell>
        <mxCell id="pyP9cMPiVNIEUNAZ6Pnh-270" value="1 April 2024" style="rounded=0;whiteSpace=wrap;html=1;" parent="1" vertex="1">
          <mxGeometry x="799" y="190" width="60" height="30" as="geometry" />
        </mxCell>
        <mxCell id="pyP9cMPiVNIEUNAZ6Pnh-271" value="8 April 2024" style="rounded=0;whiteSpace=wrap;html=1;" parent="1" vertex="1">
          <mxGeometry x="859" y="190" width="60" height="30" as="geometry" />
        </mxCell>
        <mxCell id="pyP9cMPiVNIEUNAZ6Pnh-272" value="" style="rounded=0;whiteSpace=wrap;html=1;" parent="1" vertex="1">
          <mxGeometry x="1280" y="130" width="120" height="90" as="geometry" />
        </mxCell>
        <mxCell id="pyP9cMPiVNIEUNAZ6Pnh-273" value="Domain Model v0.2" style="rounded=0;whiteSpace=wrap;html=1;" parent="1" vertex="1">
          <mxGeometry x="1280" y="130" width="120" height="30" as="geometry" />
        </mxCell>
        <mxCell id="pyP9cMPiVNIEUNAZ6Pnh-274" value="10" style="rounded=0;whiteSpace=wrap;html=1;" parent="1" vertex="1">
          <mxGeometry x="1280" y="160" width="30" height="30" as="geometry" />
        </mxCell>
        <mxCell id="pyP9cMPiVNIEUNAZ6Pnh-275" value="2" style="whiteSpace=wrap;html=1;aspect=fixed;" parent="1" vertex="1">
          <mxGeometry x="1309.5" y="160" width="30" height="30" as="geometry" />
        </mxCell>
        <mxCell id="pyP9cMPiVNIEUNAZ6Pnh-276" value="5" style="whiteSpace=wrap;html=1;aspect=fixed;" parent="1" vertex="1">
          <mxGeometry x="1340" y="160" width="30" height="30" as="geometry" />
        </mxCell>
        <mxCell id="pyP9cMPiVNIEUNAZ6Pnh-277" value="6" style="whiteSpace=wrap;html=1;aspect=fixed;" parent="1" vertex="1">
          <mxGeometry x="1370" y="160" width="30" height="30" as="geometry" />
        </mxCell>
        <mxCell id="pyP9cMPiVNIEUNAZ6Pnh-278" value="23 April 2024" style="rounded=0;whiteSpace=wrap;html=1;" parent="1" vertex="1">
          <mxGeometry x="1280" y="190" width="60" height="30" as="geometry" />
        </mxCell>
        <mxCell id="pyP9cMPiVNIEUNAZ6Pnh-279" value="27 April 2024" style="rounded=0;whiteSpace=wrap;html=1;" parent="1" vertex="1">
          <mxGeometry x="1340" y="190" width="60" height="30" as="geometry" />
        </mxCell>
        <mxCell id="pyP9cMPiVNIEUNAZ6Pnh-287" value="" style="rounded=0;whiteSpace=wrap;html=1;" parent="1" vertex="1">
          <mxGeometry x="984.5" y="520" width="60" height="30" as="geometry" />
        </mxCell>
        <mxCell id="pyP9cMPiVNIEUNAZ6Pnh-288" value="" style="rounded=0;whiteSpace=wrap;html=1;" parent="1" vertex="1">
          <mxGeometry x="1125" y="130" width="120" height="90" as="geometry" />
        </mxCell>
        <mxCell id="pyP9cMPiVNIEUNAZ6Pnh-289" value="Use Cases v0.2" style="rounded=0;whiteSpace=wrap;html=1;" parent="1" vertex="1">
          <mxGeometry x="1125" y="130" width="120" height="30" as="geometry" />
        </mxCell>
        <mxCell id="pyP9cMPiVNIEUNAZ6Pnh-290" value="7" style="rounded=0;whiteSpace=wrap;html=1;" parent="1" vertex="1">
          <mxGeometry x="1125" y="160" width="30" height="30" as="geometry" />
        </mxCell>
        <mxCell id="pyP9cMPiVNIEUNAZ6Pnh-291" value="3" style="whiteSpace=wrap;html=1;aspect=fixed;" parent="1" vertex="1">
          <mxGeometry x="1154.5" y="160" width="30" height="30" as="geometry" />
        </mxCell>
        <mxCell id="pyP9cMPiVNIEUNAZ6Pnh-292" value="6" style="whiteSpace=wrap;html=1;aspect=fixed;" parent="1" vertex="1">
          <mxGeometry x="1185" y="160" width="30" height="30" as="geometry" />
        </mxCell>
        <mxCell id="pyP9cMPiVNIEUNAZ6Pnh-293" value="9" style="whiteSpace=wrap;html=1;aspect=fixed;" parent="1" vertex="1">
          <mxGeometry x="1215" y="160" width="30" height="30" as="geometry" />
        </mxCell>
        <mxCell id="pyP9cMPiVNIEUNAZ6Pnh-294" value="17 April 2024" style="rounded=0;whiteSpace=wrap;html=1;" parent="1" vertex="1">
          <mxGeometry x="1125" y="190" width="60" height="30" as="geometry" />
        </mxCell>
        <mxCell id="pyP9cMPiVNIEUNAZ6Pnh-295" value="22 April 2024" style="rounded=0;whiteSpace=wrap;html=1;" parent="1" vertex="1">
          <mxGeometry x="1185" y="190" width="60" height="30" as="geometry" />
        </mxCell>
        <mxCell id="pyP9cMPiVNIEUNAZ6Pnh-309" value="&lt;font style=&quot;font-size: 10px;&quot;&gt;2o Παραδοτέο&lt;/font&gt;" style="rhombus;whiteSpace=wrap;html=1;fillColor=#F3FF4F;" parent="1" vertex="1">
          <mxGeometry x="1450" y="135" width="80" height="80" as="geometry" />
        </mxCell>
        <mxCell id="pyP9cMPiVNIEUNAZ6Pnh-310" value="" style="endArrow=classic;html=1;rounded=0;entryX=0;entryY=0.5;entryDx=0;entryDy=0;exitX=1;exitY=0.5;exitDx=0;exitDy=0;strokeColor=#FF0000;" parent="1" source="pyP9cMPiVNIEUNAZ6Pnh-277" target="pyP9cMPiVNIEUNAZ6Pnh-309" edge="1">
          <mxGeometry width="50" height="50" relative="1" as="geometry">
            <mxPoint x="1290" y="340" as="sourcePoint" />
            <mxPoint x="1340" y="290" as="targetPoint" />
          </mxGeometry>
        </mxCell>
        <mxCell id="pyP9cMPiVNIEUNAZ6Pnh-311" value="28 Αpril 2024" style="text;html=1;align=center;verticalAlign=middle;resizable=0;points=[];autosize=1;strokeColor=none;fillColor=none;" parent="1" vertex="1">
          <mxGeometry x="1440" y="105" width="90" height="30" as="geometry" />
        </mxCell>
        <mxCell id="pyP9cMPiVNIEUNAZ6Pnh-312" value="9 April 2024" style="rounded=0;whiteSpace=wrap;html=1;" parent="1" vertex="1">
          <mxGeometry x="970" y="190" width="60" height="30" as="geometry" />
        </mxCell>
        <mxCell id="pyP9cMPiVNIEUNAZ6Pnh-313" value="" style="endArrow=classic;html=1;rounded=0;exitX=0;exitY=1;exitDx=0;exitDy=0;strokeColor=#FF0800;" parent="1" source="pyP9cMPiVNIEUNAZ6Pnh-322" target="pyP9cMPiVNIEUNAZ6Pnh-324" edge="1">
          <mxGeometry width="50" height="50" relative="1" as="geometry">
            <mxPoint x="1240" y="310" as="sourcePoint" />
            <mxPoint x="1290" y="260" as="targetPoint" />
          </mxGeometry>
        </mxCell>
        <mxCell id="pyP9cMPiVNIEUNAZ6Pnh-314" value="" style="endArrow=classic;html=1;rounded=0;exitX=0.5;exitY=1;exitDx=0;exitDy=0;strokeColor=#FF0800;" parent="1" source="pyP9cMPiVNIEUNAZ6Pnh-309" edge="1">
          <mxGeometry width="50" height="50" relative="1" as="geometry">
            <mxPoint x="1140" y="290" as="sourcePoint" />
            <mxPoint x="1490" y="260" as="targetPoint" />
            <Array as="points">
              <mxPoint x="1490" y="215" />
            </Array>
          </mxGeometry>
        </mxCell>
        <mxCell id="pyP9cMPiVNIEUNAZ6Pnh-315" value="" style="rounded=0;whiteSpace=wrap;html=1;" parent="1" vertex="1">
          <mxGeometry x="1430" y="260" width="120" height="90" as="geometry" />
        </mxCell>
        <mxCell id="pyP9cMPiVNIEUNAZ6Pnh-316" value="Class diagram v0.1" style="rounded=0;whiteSpace=wrap;html=1;" parent="1" vertex="1">
          <mxGeometry x="1430" y="260" width="120" height="30" as="geometry" />
        </mxCell>
        <mxCell id="pyP9cMPiVNIEUNAZ6Pnh-317" value="11" style="rounded=0;whiteSpace=wrap;html=1;" parent="1" vertex="1">
          <mxGeometry x="1430" y="290" width="30" height="30" as="geometry" />
        </mxCell>
        <mxCell id="pyP9cMPiVNIEUNAZ6Pnh-318" value="5" style="whiteSpace=wrap;html=1;aspect=fixed;" parent="1" vertex="1">
          <mxGeometry x="1459.5" y="290" width="30" height="30" as="geometry" />
        </mxCell>
        <mxCell id="pyP9cMPiVNIEUNAZ6Pnh-319" value="7" style="whiteSpace=wrap;html=1;aspect=fixed;" parent="1" vertex="1">
          <mxGeometry x="1490" y="290" width="30" height="30" as="geometry" />
        </mxCell>
        <mxCell id="pyP9cMPiVNIEUNAZ6Pnh-320" value="10" style="whiteSpace=wrap;html=1;aspect=fixed;" parent="1" vertex="1">
          <mxGeometry x="1520" y="290" width="30" height="30" as="geometry" />
        </mxCell>
        <mxCell id="pyP9cMPiVNIEUNAZ6Pnh-321" value="29 April 2024" style="rounded=0;whiteSpace=wrap;html=1;" parent="1" vertex="1">
          <mxGeometry x="1430" y="320" width="60" height="30" as="geometry" />
        </mxCell>
        <mxCell id="pyP9cMPiVNIEUNAZ6Pnh-322" value="&amp;nbsp;5 May 2024" style="rounded=0;whiteSpace=wrap;html=1;" parent="1" vertex="1">
          <mxGeometry x="1490" y="320" width="60" height="30" as="geometry" />
        </mxCell>
        <mxCell id="pyP9cMPiVNIEUNAZ6Pnh-323" value="" style="rounded=0;whiteSpace=wrap;html=1;" parent="1" vertex="1">
          <mxGeometry x="1430" y="380" width="120" height="90" as="geometry" />
        </mxCell>
        <mxCell id="pyP9cMPiVNIEUNAZ6Pnh-324" value="Project code v0.1" style="rounded=0;whiteSpace=wrap;html=1;" parent="1" vertex="1">
          <mxGeometry x="1430" y="380" width="120" height="30" as="geometry" />
        </mxCell>
        <mxCell id="pyP9cMPiVNIEUNAZ6Pnh-325" value="12" style="rounded=0;whiteSpace=wrap;html=1;" parent="1" vertex="1">
          <mxGeometry x="1430" y="410" width="30" height="30" as="geometry" />
        </mxCell>
        <mxCell id="pyP9cMPiVNIEUNAZ6Pnh-326" value="10" style="whiteSpace=wrap;html=1;aspect=fixed;" parent="1" vertex="1">
          <mxGeometry x="1459.5" y="410" width="30" height="30" as="geometry" />
        </mxCell>
        <mxCell id="pyP9cMPiVNIEUNAZ6Pnh-327" value="14" style="whiteSpace=wrap;html=1;aspect=fixed;" parent="1" vertex="1">
          <mxGeometry x="1490" y="410" width="30" height="30" as="geometry" />
        </mxCell>
        <mxCell id="pyP9cMPiVNIEUNAZ6Pnh-328" value="17" style="whiteSpace=wrap;html=1;aspect=fixed;" parent="1" vertex="1">
          <mxGeometry x="1520" y="410" width="30" height="30" as="geometry" />
        </mxCell>
        <mxCell id="pyP9cMPiVNIEUNAZ6Pnh-329" value="&amp;nbsp;6 May 2024" style="rounded=0;whiteSpace=wrap;html=1;" parent="1" vertex="1">
          <mxGeometry x="1430" y="440" width="60" height="30" as="geometry" />
        </mxCell>
        <mxCell id="pyP9cMPiVNIEUNAZ6Pnh-330" value="&amp;nbsp;19 May 2024" style="rounded=0;whiteSpace=wrap;html=1;" parent="1" vertex="1">
          <mxGeometry x="1490" y="440" width="60" height="30" as="geometry" />
        </mxCell>
        <mxCell id="pyP9cMPiVNIEUNAZ6Pnh-331" value="" style="rounded=0;whiteSpace=wrap;html=1;" parent="1" vertex="1">
          <mxGeometry x="1430" y="500" width="120" height="90" as="geometry" />
        </mxCell>
        <mxCell id="pyP9cMPiVNIEUNAZ6Pnh-332" value="Test cases v0.1" style="rounded=0;whiteSpace=wrap;html=1;" parent="1" vertex="1">
          <mxGeometry x="1430" y="500" width="120" height="30" as="geometry" />
        </mxCell>
        <mxCell id="pyP9cMPiVNIEUNAZ6Pnh-333" value="13" style="rounded=0;whiteSpace=wrap;html=1;" parent="1" vertex="1">
          <mxGeometry x="1430" y="530" width="30" height="30" as="geometry" />
        </mxCell>
        <mxCell id="pyP9cMPiVNIEUNAZ6Pnh-334" value="5" style="whiteSpace=wrap;html=1;aspect=fixed;" parent="1" vertex="1">
          <mxGeometry x="1459.5" y="530" width="30" height="30" as="geometry" />
        </mxCell>
        <mxCell id="pyP9cMPiVNIEUNAZ6Pnh-335" value="6" style="whiteSpace=wrap;html=1;aspect=fixed;" parent="1" vertex="1">
          <mxGeometry x="1490" y="530" width="30" height="30" as="geometry" />
        </mxCell>
        <mxCell id="pyP9cMPiVNIEUNAZ6Pnh-336" value="10" style="whiteSpace=wrap;html=1;aspect=fixed;" parent="1" vertex="1">
          <mxGeometry x="1520" y="530" width="30" height="30" as="geometry" />
        </mxCell>
        <mxCell id="pyP9cMPiVNIEUNAZ6Pnh-337" value="&amp;nbsp;20 May 2024" style="rounded=0;whiteSpace=wrap;html=1;" parent="1" vertex="1">
          <mxGeometry x="1430" y="560" width="60" height="30" as="geometry" />
        </mxCell>
        <mxCell id="pyP9cMPiVNIEUNAZ6Pnh-338" value="&amp;nbsp;25 May 2024" style="rounded=0;whiteSpace=wrap;html=1;" parent="1" vertex="1">
          <mxGeometry x="1490" y="560" width="60" height="30" as="geometry" />
        </mxCell>
        <mxCell id="pyP9cMPiVNIEUNAZ6Pnh-339" value="" style="endArrow=classic;html=1;rounded=0;exitX=1;exitY=1;exitDx=0;exitDy=0;entryX=0.5;entryY=0;entryDx=0;entryDy=0;strokeColor=#FC0800;" parent="1" source="pyP9cMPiVNIEUNAZ6Pnh-329" target="pyP9cMPiVNIEUNAZ6Pnh-332" edge="1">
          <mxGeometry width="50" height="50" relative="1" as="geometry">
            <mxPoint x="1140" y="290" as="sourcePoint" />
            <mxPoint x="1190" y="240" as="targetPoint" />
          </mxGeometry>
        </mxCell>
        <mxCell id="pyP9cMPiVNIEUNAZ6Pnh-340" value="" style="endArrow=classic;html=1;rounded=0;exitX=0;exitY=0.5;exitDx=0;exitDy=0;strokeColor=#FF0800;" parent="1" source="pyP9cMPiVNIEUNAZ6Pnh-333" edge="1">
          <mxGeometry width="50" height="50" relative="1" as="geometry">
            <mxPoint x="460" y="420" as="sourcePoint" />
            <mxPoint x="1350" y="545" as="targetPoint" />
          </mxGeometry>
        </mxCell>
        <mxCell id="pyP9cMPiVNIEUNAZ6Pnh-341" value="&lt;font style=&quot;font-size: 10px;&quot;&gt;3o Παραδοτέο&lt;/font&gt;" style="rhombus;whiteSpace=wrap;html=1;fillColor=#F3FF4F;" parent="1" vertex="1">
          <mxGeometry x="1270" y="505" width="80" height="80" as="geometry" />
        </mxCell>
        <mxCell id="pyP9cMPiVNIEUNAZ6Pnh-342" value="26 May 2024" style="text;html=1;align=center;verticalAlign=middle;resizable=0;points=[];autosize=1;strokeColor=none;fillColor=none;" parent="1" vertex="1">
          <mxGeometry x="1270" y="470" width="90" height="30" as="geometry" />
        </mxCell>
        <mxCell id="pyP9cMPiVNIEUNAZ6Pnh-368" value="" style="rounded=0;whiteSpace=wrap;html=1;" parent="1" vertex="1">
          <mxGeometry x="964.5" y="500" width="120" height="90" as="geometry" />
        </mxCell>
        <mxCell id="pyP9cMPiVNIEUNAZ6Pnh-369" value="Team Plan v1.0" style="rounded=0;whiteSpace=wrap;html=1;" parent="1" vertex="1">
          <mxGeometry x="964.5" y="500" width="120" height="30" as="geometry" />
        </mxCell>
        <mxCell id="pyP9cMPiVNIEUNAZ6Pnh-370" value="16" style="rounded=0;whiteSpace=wrap;html=1;" parent="1" vertex="1">
          <mxGeometry x="964.5" y="530" width="30" height="30" as="geometry" />
        </mxCell>
        <mxCell id="pyP9cMPiVNIEUNAZ6Pnh-371" value="1" style="whiteSpace=wrap;html=1;aspect=fixed;" parent="1" vertex="1">
          <mxGeometry x="994" y="530" width="30" height="30" as="geometry" />
        </mxCell>
        <mxCell id="pyP9cMPiVNIEUNAZ6Pnh-372" value="1" style="whiteSpace=wrap;html=1;aspect=fixed;" parent="1" vertex="1">
          <mxGeometry x="1024.5" y="530" width="30" height="30" as="geometry" />
        </mxCell>
        <mxCell id="pyP9cMPiVNIEUNAZ6Pnh-373" value="3" style="whiteSpace=wrap;html=1;aspect=fixed;" parent="1" vertex="1">
          <mxGeometry x="1054.5" y="530" width="30" height="30" as="geometry" />
        </mxCell>
        <mxCell id="pyP9cMPiVNIEUNAZ6Pnh-374" value="28 May 2024" style="rounded=0;whiteSpace=wrap;html=1;" parent="1" vertex="1">
          <mxGeometry x="964.5" y="560" width="60" height="30" as="geometry" />
        </mxCell>
        <mxCell id="pyP9cMPiVNIEUNAZ6Pnh-375" value="28 May 2024" style="rounded=0;whiteSpace=wrap;html=1;" parent="1" vertex="1">
          <mxGeometry x="1024.5" y="560" width="60" height="30" as="geometry" />
        </mxCell>
        <mxCell id="pyP9cMPiVNIEUNAZ6Pnh-376" value="" style="rounded=0;whiteSpace=wrap;html=1;" parent="1" vertex="1">
          <mxGeometry x="799" y="500" width="120" height="90" as="geometry" />
        </mxCell>
        <mxCell id="pyP9cMPiVNIEUNAZ6Pnh-377" value="Use Cases v1.0" style="rounded=0;whiteSpace=wrap;html=1;" parent="1" vertex="1">
          <mxGeometry x="799" y="500" width="120" height="30" as="geometry" />
        </mxCell>
        <mxCell id="pyP9cMPiVNIEUNAZ6Pnh-378" value="18" style="rounded=0;whiteSpace=wrap;html=1;" parent="1" vertex="1">
          <mxGeometry x="799" y="530" width="30" height="30" as="geometry" />
        </mxCell>
        <mxCell id="pyP9cMPiVNIEUNAZ6Pnh-379" value="1" style="whiteSpace=wrap;html=1;aspect=fixed;" parent="1" vertex="1">
          <mxGeometry x="828.5" y="530" width="30" height="30" as="geometry" />
        </mxCell>
        <mxCell id="pyP9cMPiVNIEUNAZ6Pnh-380" value="1" style="whiteSpace=wrap;html=1;aspect=fixed;" parent="1" vertex="1">
          <mxGeometry x="859" y="530" width="30" height="30" as="geometry" />
        </mxCell>
        <mxCell id="pyP9cMPiVNIEUNAZ6Pnh-381" value="2" style="whiteSpace=wrap;html=1;aspect=fixed;" parent="1" vertex="1">
          <mxGeometry x="889" y="530" width="30" height="30" as="geometry" />
        </mxCell>
        <mxCell id="pyP9cMPiVNIEUNAZ6Pnh-382" value="29 May 2024" style="rounded=0;whiteSpace=wrap;html=1;" parent="1" vertex="1">
          <mxGeometry x="799" y="560" width="60" height="30" as="geometry" />
        </mxCell>
        <mxCell id="pyP9cMPiVNIEUNAZ6Pnh-383" value="29 May 2024" style="rounded=0;whiteSpace=wrap;html=1;" parent="1" vertex="1">
          <mxGeometry x="859" y="560" width="60" height="30" as="geometry" />
        </mxCell>
        <mxCell id="pyP9cMPiVNIEUNAZ6Pnh-384" value="" style="rounded=0;whiteSpace=wrap;html=1;" parent="1" vertex="1">
          <mxGeometry x="1125" y="500" width="120" height="90" as="geometry" />
        </mxCell>
        <mxCell id="pyP9cMPiVNIEUNAZ6Pnh-385" value="Project Description v1.0" style="rounded=0;whiteSpace=wrap;html=1;" parent="1" vertex="1">
          <mxGeometry x="1125" y="500" width="120" height="30" as="geometry" />
        </mxCell>
        <mxCell id="pyP9cMPiVNIEUNAZ6Pnh-386" value="14" style="rounded=0;whiteSpace=wrap;html=1;" parent="1" vertex="1">
          <mxGeometry x="1125" y="530" width="30" height="30" as="geometry" />
        </mxCell>
        <mxCell id="pyP9cMPiVNIEUNAZ6Pnh-387" value="1" style="whiteSpace=wrap;html=1;aspect=fixed;" parent="1" vertex="1">
          <mxGeometry x="1154.5" y="530" width="30" height="30" as="geometry" />
        </mxCell>
        <mxCell id="pyP9cMPiVNIEUNAZ6Pnh-388" value="1" style="whiteSpace=wrap;html=1;aspect=fixed;" parent="1" vertex="1">
          <mxGeometry x="1185" y="530" width="30" height="30" as="geometry" />
        </mxCell>
        <mxCell id="pyP9cMPiVNIEUNAZ6Pnh-389" value="2" style="whiteSpace=wrap;html=1;aspect=fixed;" parent="1" vertex="1">
          <mxGeometry x="1215" y="530" width="30" height="30" as="geometry" />
        </mxCell>
        <mxCell id="pyP9cMPiVNIEUNAZ6Pnh-390" value="27 May 2024" style="rounded=0;whiteSpace=wrap;html=1;" parent="1" vertex="1">
          <mxGeometry x="1125" y="560" width="60" height="30" as="geometry" />
        </mxCell>
        <mxCell id="pyP9cMPiVNIEUNAZ6Pnh-391" value="27 May 2024" style="rounded=0;whiteSpace=wrap;html=1;" parent="1" vertex="1">
          <mxGeometry x="1185" y="560" width="60" height="30" as="geometry" />
        </mxCell>
        <mxCell id="pyP9cMPiVNIEUNAZ6Pnh-392" value="" style="rounded=0;whiteSpace=wrap;html=1;" parent="1" vertex="1">
          <mxGeometry x="970" y="370" width="120" height="90" as="geometry" />
        </mxCell>
        <mxCell id="pyP9cMPiVNIEUNAZ6Pnh-393" value="Project Plan v1.0" style="rounded=0;whiteSpace=wrap;html=1;" parent="1" vertex="1">
          <mxGeometry x="970" y="370" width="120" height="30" as="geometry" />
        </mxCell>
        <mxCell id="pyP9cMPiVNIEUNAZ6Pnh-394" value="15" style="rounded=0;whiteSpace=wrap;html=1;" parent="1" vertex="1">
          <mxGeometry x="970" y="400" width="30" height="30" as="geometry" />
        </mxCell>
        <mxCell id="pyP9cMPiVNIEUNAZ6Pnh-395" value="1" style="whiteSpace=wrap;html=1;aspect=fixed;" parent="1" vertex="1">
          <mxGeometry x="999.5" y="400" width="30" height="30" as="geometry" />
        </mxCell>
        <mxCell id="pyP9cMPiVNIEUNAZ6Pnh-396" value="1" style="whiteSpace=wrap;html=1;aspect=fixed;" parent="1" vertex="1">
          <mxGeometry x="1030" y="400" width="30" height="30" as="geometry" />
        </mxCell>
        <mxCell id="pyP9cMPiVNIEUNAZ6Pnh-397" value="2" style="whiteSpace=wrap;html=1;aspect=fixed;" parent="1" vertex="1">
          <mxGeometry x="1060" y="400" width="30" height="30" as="geometry" />
        </mxCell>
        <mxCell id="pyP9cMPiVNIEUNAZ6Pnh-399" value="28 May 2024" style="rounded=0;whiteSpace=wrap;html=1;" parent="1" vertex="1">
          <mxGeometry x="1030" y="430" width="60" height="30" as="geometry" />
        </mxCell>
        <mxCell id="pyP9cMPiVNIEUNAZ6Pnh-400" value="" style="rounded=0;whiteSpace=wrap;html=1;" parent="1" vertex="1">
          <mxGeometry x="965.5" y="630" width="120" height="90" as="geometry" />
        </mxCell>
        <mxCell id="pyP9cMPiVNIEUNAZ6Pnh-401" value="Risk Assesment v1.0" style="rounded=0;whiteSpace=wrap;html=1;" parent="1" vertex="1">
          <mxGeometry x="964.5" y="629" width="120" height="30" as="geometry" />
        </mxCell>
        <mxCell id="pyP9cMPiVNIEUNAZ6Pnh-402" value="17" style="rounded=0;whiteSpace=wrap;html=1;" parent="1" vertex="1">
          <mxGeometry x="965.5" y="660" width="30" height="30" as="geometry" />
        </mxCell>
        <mxCell id="pyP9cMPiVNIEUNAZ6Pnh-403" value="1" style="whiteSpace=wrap;html=1;aspect=fixed;" parent="1" vertex="1">
          <mxGeometry x="995" y="660" width="30" height="30" as="geometry" />
        </mxCell>
        <mxCell id="pyP9cMPiVNIEUNAZ6Pnh-404" value="1" style="whiteSpace=wrap;html=1;aspect=fixed;" parent="1" vertex="1">
          <mxGeometry x="1025.5" y="660" width="30" height="30" as="geometry" />
        </mxCell>
        <mxCell id="pyP9cMPiVNIEUNAZ6Pnh-405" value="2" style="whiteSpace=wrap;html=1;aspect=fixed;" parent="1" vertex="1">
          <mxGeometry x="1055.5" y="660" width="30" height="30" as="geometry" />
        </mxCell>
        <mxCell id="pyP9cMPiVNIEUNAZ6Pnh-406" value="28 May 2024" style="rounded=0;whiteSpace=wrap;html=1;" parent="1" vertex="1">
          <mxGeometry x="965.5" y="690" width="60" height="30" as="geometry" />
        </mxCell>
        <mxCell id="pyP9cMPiVNIEUNAZ6Pnh-407" value="28 May 2024" style="rounded=0;whiteSpace=wrap;html=1;" parent="1" vertex="1">
          <mxGeometry x="1025.5" y="690" width="60" height="30" as="geometry" />
        </mxCell>
        <mxCell id="pyP9cMPiVNIEUNAZ6Pnh-408" value="" style="rounded=0;whiteSpace=wrap;html=1;" parent="1" vertex="1">
          <mxGeometry x="345" y="430" width="120" height="90" as="geometry" />
        </mxCell>
        <mxCell id="pyP9cMPiVNIEUNAZ6Pnh-409" value="Domain Model v1.0" style="rounded=0;whiteSpace=wrap;html=1;" parent="1" vertex="1">
          <mxGeometry x="345" y="430" width="120" height="30" as="geometry" />
        </mxCell>
        <mxCell id="pyP9cMPiVNIEUNAZ6Pnh-410" value="19" style="rounded=0;whiteSpace=wrap;html=1;" parent="1" vertex="1">
          <mxGeometry x="345" y="460" width="30" height="30" as="geometry" />
        </mxCell>
        <mxCell id="pyP9cMPiVNIEUNAZ6Pnh-411" value="1" style="whiteSpace=wrap;html=1;aspect=fixed;" parent="1" vertex="1">
          <mxGeometry x="374.5" y="460" width="30" height="30" as="geometry" />
        </mxCell>
        <mxCell id="pyP9cMPiVNIEUNAZ6Pnh-412" value="1" style="whiteSpace=wrap;html=1;aspect=fixed;" parent="1" vertex="1">
          <mxGeometry x="405" y="460" width="30" height="30" as="geometry" />
        </mxCell>
        <mxCell id="pyP9cMPiVNIEUNAZ6Pnh-413" value="2" style="whiteSpace=wrap;html=1;aspect=fixed;" parent="1" vertex="1">
          <mxGeometry x="435" y="460" width="30" height="30" as="geometry" />
        </mxCell>
        <mxCell id="pyP9cMPiVNIEUNAZ6Pnh-414" value="30 May 2024" style="rounded=0;whiteSpace=wrap;html=1;" parent="1" vertex="1">
          <mxGeometry x="345" y="490" width="60" height="30" as="geometry" />
        </mxCell>
        <mxCell id="pyP9cMPiVNIEUNAZ6Pnh-415" value="30 May 2024" style="rounded=0;whiteSpace=wrap;html=1;" parent="1" vertex="1">
          <mxGeometry x="405" y="490" width="60" height="30" as="geometry" />
        </mxCell>
        <mxCell id="pyP9cMPiVNIEUNAZ6Pnh-416" value="" style="rounded=0;whiteSpace=wrap;html=1;" parent="1" vertex="1">
          <mxGeometry x="344" y="561" width="120" height="90" as="geometry" />
        </mxCell>
        <mxCell id="pyP9cMPiVNIEUNAZ6Pnh-417" value="Class Diagram v1.0" style="rounded=0;whiteSpace=wrap;html=1;" parent="1" vertex="1">
          <mxGeometry x="345" y="560" width="120" height="30" as="geometry" />
        </mxCell>
        <mxCell id="pyP9cMPiVNIEUNAZ6Pnh-418" value="20" style="rounded=0;whiteSpace=wrap;html=1;" parent="1" vertex="1">
          <mxGeometry x="344" y="591" width="30" height="30" as="geometry" />
        </mxCell>
        <mxCell id="pyP9cMPiVNIEUNAZ6Pnh-419" value="1" style="whiteSpace=wrap;html=1;aspect=fixed;" parent="1" vertex="1">
          <mxGeometry x="373.5" y="591" width="30" height="30" as="geometry" />
        </mxCell>
        <mxCell id="pyP9cMPiVNIEUNAZ6Pnh-420" value="1" style="whiteSpace=wrap;html=1;aspect=fixed;" parent="1" vertex="1">
          <mxGeometry x="404" y="591" width="30" height="30" as="geometry" />
        </mxCell>
        <mxCell id="pyP9cMPiVNIEUNAZ6Pnh-421" value="3" style="whiteSpace=wrap;html=1;aspect=fixed;" parent="1" vertex="1">
          <mxGeometry x="434" y="591" width="30" height="30" as="geometry" />
        </mxCell>
        <mxCell id="pyP9cMPiVNIEUNAZ6Pnh-422" value="30 May 2024" style="rounded=0;whiteSpace=wrap;html=1;" parent="1" vertex="1">
          <mxGeometry x="344" y="621" width="60" height="30" as="geometry" />
        </mxCell>
        <mxCell id="pyP9cMPiVNIEUNAZ6Pnh-423" value="30 May 2024" style="rounded=0;whiteSpace=wrap;html=1;" parent="1" vertex="1">
          <mxGeometry x="404" y="621" width="60" height="30" as="geometry" />
        </mxCell>
        <mxCell id="pyP9cMPiVNIEUNAZ6Pnh-424" value="" style="rounded=0;whiteSpace=wrap;html=1;" parent="1" vertex="1">
          <mxGeometry x="500" y="501" width="120" height="90" as="geometry" />
        </mxCell>
        <mxCell id="pyP9cMPiVNIEUNAZ6Pnh-425" value="Sequence Diagrams v1.0" style="rounded=0;whiteSpace=wrap;html=1;" parent="1" vertex="1">
          <mxGeometry x="500" y="501" width="120" height="30" as="geometry" />
        </mxCell>
        <mxCell id="pyP9cMPiVNIEUNAZ6Pnh-426" value="21" style="rounded=0;whiteSpace=wrap;html=1;" parent="1" vertex="1">
          <mxGeometry x="500" y="531" width="30" height="30" as="geometry" />
        </mxCell>
        <mxCell id="pyP9cMPiVNIEUNAZ6Pnh-427" value="1" style="whiteSpace=wrap;html=1;aspect=fixed;" parent="1" vertex="1">
          <mxGeometry x="529.5" y="531" width="30" height="30" as="geometry" />
        </mxCell>
        <mxCell id="pyP9cMPiVNIEUNAZ6Pnh-428" value="1" style="whiteSpace=wrap;html=1;aspect=fixed;" parent="1" vertex="1">
          <mxGeometry x="560" y="531" width="30" height="30" as="geometry" />
        </mxCell>
        <mxCell id="pyP9cMPiVNIEUNAZ6Pnh-429" value="2" style="whiteSpace=wrap;html=1;aspect=fixed;" parent="1" vertex="1">
          <mxGeometry x="590" y="531" width="30" height="30" as="geometry" />
        </mxCell>
        <mxCell id="pyP9cMPiVNIEUNAZ6Pnh-430" value="31 May 2024" style="rounded=0;whiteSpace=wrap;html=1;" parent="1" vertex="1">
          <mxGeometry x="500" y="561" width="60" height="30" as="geometry" />
        </mxCell>
        <mxCell id="pyP9cMPiVNIEUNAZ6Pnh-431" value="31 May 2024" style="rounded=0;whiteSpace=wrap;html=1;" parent="1" vertex="1">
          <mxGeometry x="560" y="561" width="60" height="30" as="geometry" />
        </mxCell>
        <mxCell id="pyP9cMPiVNIEUNAZ6Pnh-432" value="" style="rounded=0;whiteSpace=wrap;html=1;" parent="1" vertex="1">
          <mxGeometry x="654.5" y="500" width="120" height="90" as="geometry" />
        </mxCell>
        <mxCell id="pyP9cMPiVNIEUNAZ6Pnh-433" value="Robustness Diagrams v1.0" style="rounded=0;whiteSpace=wrap;html=1;" parent="1" vertex="1">
          <mxGeometry x="654.5" y="500" width="120" height="30" as="geometry" />
        </mxCell>
        <mxCell id="pyP9cMPiVNIEUNAZ6Pnh-434" value="22" style="rounded=0;whiteSpace=wrap;html=1;" parent="1" vertex="1">
          <mxGeometry x="654.5" y="530" width="30" height="30" as="geometry" />
        </mxCell>
        <mxCell id="pyP9cMPiVNIEUNAZ6Pnh-435" value="1" style="whiteSpace=wrap;html=1;aspect=fixed;" parent="1" vertex="1">
          <mxGeometry x="684" y="530" width="30" height="30" as="geometry" />
        </mxCell>
        <mxCell id="pyP9cMPiVNIEUNAZ6Pnh-436" value="1" style="whiteSpace=wrap;html=1;aspect=fixed;" parent="1" vertex="1">
          <mxGeometry x="714.5" y="530" width="30" height="30" as="geometry" />
        </mxCell>
        <mxCell id="pyP9cMPiVNIEUNAZ6Pnh-437" value="2" style="whiteSpace=wrap;html=1;aspect=fixed;" parent="1" vertex="1">
          <mxGeometry x="744.5" y="530" width="30" height="30" as="geometry" />
        </mxCell>
        <mxCell id="pyP9cMPiVNIEUNAZ6Pnh-438" value="31 May 2024" style="rounded=0;whiteSpace=wrap;html=1;" parent="1" vertex="1">
          <mxGeometry x="654.5" y="560" width="60" height="30" as="geometry" />
        </mxCell>
        <mxCell id="pyP9cMPiVNIEUNAZ6Pnh-439" value="31 May 2024" style="rounded=0;whiteSpace=wrap;html=1;" parent="1" vertex="1">
          <mxGeometry x="714.5" y="560" width="60" height="30" as="geometry" />
        </mxCell>
        <mxCell id="pyP9cMPiVNIEUNAZ6Pnh-440" value="" style="rounded=0;whiteSpace=wrap;html=1;" parent="1" vertex="1">
          <mxGeometry x="190" y="561" width="120" height="90" as="geometry" />
        </mxCell>
        <mxCell id="pyP9cMPiVNIEUNAZ6Pnh-441" value="Test Cases v1.0" style="rounded=0;whiteSpace=wrap;html=1;" parent="1" vertex="1">
          <mxGeometry x="190" y="561" width="120" height="30" as="geometry" />
        </mxCell>
        <mxCell id="pyP9cMPiVNIEUNAZ6Pnh-442" value="24" style="rounded=0;whiteSpace=wrap;html=1;" parent="1" vertex="1">
          <mxGeometry x="190" y="591" width="30" height="30" as="geometry" />
        </mxCell>
        <mxCell id="pyP9cMPiVNIEUNAZ6Pnh-443" value="1" style="whiteSpace=wrap;html=1;aspect=fixed;" parent="1" vertex="1">
          <mxGeometry x="219.5" y="591" width="30" height="30" as="geometry" />
        </mxCell>
        <mxCell id="pyP9cMPiVNIEUNAZ6Pnh-444" value="1" style="whiteSpace=wrap;html=1;aspect=fixed;" parent="1" vertex="1">
          <mxGeometry x="250" y="591" width="30" height="30" as="geometry" />
        </mxCell>
        <mxCell id="pyP9cMPiVNIEUNAZ6Pnh-445" value="3" style="whiteSpace=wrap;html=1;aspect=fixed;" parent="1" vertex="1">
          <mxGeometry x="280" y="591" width="30" height="30" as="geometry" />
        </mxCell>
        <mxCell id="pyP9cMPiVNIEUNAZ6Pnh-446" value="1 June 2024" style="rounded=0;whiteSpace=wrap;html=1;" parent="1" vertex="1">
          <mxGeometry x="190" y="621" width="60" height="30" as="geometry" />
        </mxCell>
        <mxCell id="pyP9cMPiVNIEUNAZ6Pnh-447" value="1 June 2024" style="rounded=0;whiteSpace=wrap;html=1;" parent="1" vertex="1">
          <mxGeometry x="250" y="621" width="60" height="30" as="geometry" />
        </mxCell>
        <mxCell id="pyP9cMPiVNIEUNAZ6Pnh-448" value="" style="rounded=0;whiteSpace=wrap;html=1;" parent="1" vertex="1">
          <mxGeometry x="190" y="430" width="120" height="90" as="geometry" />
        </mxCell>
        <mxCell id="pyP9cMPiVNIEUNAZ6Pnh-449" value="Project Code v1.0" style="rounded=0;whiteSpace=wrap;html=1;" parent="1" vertex="1">
          <mxGeometry x="190" y="430" width="120" height="30" as="geometry" />
        </mxCell>
        <mxCell id="pyP9cMPiVNIEUNAZ6Pnh-450" value="23" style="rounded=0;whiteSpace=wrap;html=1;" parent="1" vertex="1">
          <mxGeometry x="190" y="460" width="30" height="30" as="geometry" />
        </mxCell>
        <mxCell id="pyP9cMPiVNIEUNAZ6Pnh-451" value="1" style="whiteSpace=wrap;html=1;aspect=fixed;" parent="1" vertex="1">
          <mxGeometry x="219.5" y="460" width="30" height="30" as="geometry" />
        </mxCell>
        <mxCell id="pyP9cMPiVNIEUNAZ6Pnh-452" value="1" style="whiteSpace=wrap;html=1;aspect=fixed;" parent="1" vertex="1">
          <mxGeometry x="250" y="460" width="30" height="30" as="geometry" />
        </mxCell>
        <mxCell id="pyP9cMPiVNIEUNAZ6Pnh-453" value="4" style="whiteSpace=wrap;html=1;aspect=fixed;" parent="1" vertex="1">
          <mxGeometry x="280" y="460" width="30" height="30" as="geometry" />
        </mxCell>
        <mxCell id="pyP9cMPiVNIEUNAZ6Pnh-454" value="1 June 2024" style="rounded=0;whiteSpace=wrap;html=1;" parent="1" vertex="1">
          <mxGeometry x="190" y="490" width="60" height="30" as="geometry" />
        </mxCell>
        <mxCell id="pyP9cMPiVNIEUNAZ6Pnh-455" value="2 June 2024" style="rounded=0;whiteSpace=wrap;html=1;" parent="1" vertex="1">
          <mxGeometry x="250" y="490" width="60" height="30" as="geometry" />
        </mxCell>
        <mxCell id="pyP9cMPiVNIEUNAZ6Pnh-456" value="&lt;font style=&quot;font-size: 10px;&quot;&gt;4o Παραδοτέο&lt;/font&gt;" style="rhombus;whiteSpace=wrap;html=1;fillColor=#F3FF4F;" parent="1" vertex="1">
          <mxGeometry x="55" y="500" width="80" height="80" as="geometry" />
        </mxCell>
        <mxCell id="pyP9cMPiVNIEUNAZ6Pnh-457" value="" style="endArrow=classic;html=1;rounded=0;exitX=0;exitY=0.5;exitDx=0;exitDy=0;entryX=1;entryY=0.5;entryDx=0;entryDy=0;strokeColor=#FF0800;" parent="1" source="pyP9cMPiVNIEUNAZ6Pnh-341" target="pyP9cMPiVNIEUNAZ6Pnh-389" edge="1">
          <mxGeometry width="50" height="50" relative="1" as="geometry">
            <mxPoint x="740" y="450" as="sourcePoint" />
            <mxPoint x="790" y="400" as="targetPoint" />
          </mxGeometry>
        </mxCell>
        <mxCell id="pyP9cMPiVNIEUNAZ6Pnh-458" value="" style="endArrow=classic;html=1;rounded=0;exitX=0;exitY=0.5;exitDx=0;exitDy=0;entryX=1;entryY=0.5;entryDx=0;entryDy=0;strokeColor=#FF0800;" parent="1" source="pyP9cMPiVNIEUNAZ6Pnh-386" target="pyP9cMPiVNIEUNAZ6Pnh-373" edge="1">
          <mxGeometry width="50" height="50" relative="1" as="geometry">
            <mxPoint x="785" y="450" as="sourcePoint" />
            <mxPoint x="835" y="400" as="targetPoint" />
          </mxGeometry>
        </mxCell>
        <mxCell id="pyP9cMPiVNIEUNAZ6Pnh-459" value="" style="endArrow=classic;html=1;rounded=0;exitX=0;exitY=0.5;exitDx=0;exitDy=0;entryX=1;entryY=0.5;entryDx=0;entryDy=0;strokeColor=#000000;" parent="1" source="pyP9cMPiVNIEUNAZ6Pnh-386" target="pyP9cMPiVNIEUNAZ6Pnh-397" edge="1">
          <mxGeometry width="50" height="50" relative="1" as="geometry">
            <mxPoint x="785" y="450" as="sourcePoint" />
            <mxPoint x="885" y="430" as="targetPoint" />
          </mxGeometry>
        </mxCell>
        <mxCell id="pyP9cMPiVNIEUNAZ6Pnh-462" value="" style="endArrow=classic;html=1;rounded=0;exitX=0;exitY=0.5;exitDx=0;exitDy=0;entryX=1;entryY=0.5;entryDx=0;entryDy=0;strokeColor=#F70800;" parent="1" source="pyP9cMPiVNIEUNAZ6Pnh-370" target="pyP9cMPiVNIEUNAZ6Pnh-381" edge="1">
          <mxGeometry width="50" height="50" relative="1" as="geometry">
            <mxPoint x="785" y="450" as="sourcePoint" />
            <mxPoint x="835" y="400" as="targetPoint" />
          </mxGeometry>
        </mxCell>
        <mxCell id="pyP9cMPiVNIEUNAZ6Pnh-463" value="" style="endArrow=classic;html=1;rounded=0;entryX=1;entryY=0.5;entryDx=0;entryDy=0;strokeColor=#050000;" parent="1" target="pyP9cMPiVNIEUNAZ6Pnh-405" edge="1">
          <mxGeometry width="50" height="50" relative="1" as="geometry">
            <mxPoint x="1125" y="550" as="sourcePoint" />
            <mxPoint x="835" y="400" as="targetPoint" />
          </mxGeometry>
        </mxCell>
        <mxCell id="pyP9cMPiVNIEUNAZ6Pnh-470" value="" style="endArrow=classic;html=1;rounded=0;exitX=0;exitY=0.5;exitDx=0;exitDy=0;entryX=1;entryY=0.5;entryDx=0;entryDy=0;" parent="1" source="pyP9cMPiVNIEUNAZ6Pnh-442" target="pyP9cMPiVNIEUNAZ6Pnh-456" edge="1">
          <mxGeometry width="50" height="50" relative="1" as="geometry">
            <mxPoint x="740" y="450" as="sourcePoint" />
            <mxPoint x="790" y="400" as="targetPoint" />
          </mxGeometry>
        </mxCell>
        <mxCell id="pyP9cMPiVNIEUNAZ6Pnh-471" value="" style="endArrow=classic;html=1;rounded=0;exitX=0;exitY=0.5;exitDx=0;exitDy=0;entryX=1;entryY=0.5;entryDx=0;entryDy=0;strokeColor=#FF0800;" parent="1" source="pyP9cMPiVNIEUNAZ6Pnh-450" target="pyP9cMPiVNIEUNAZ6Pnh-456" edge="1">
          <mxGeometry width="50" height="50" relative="1" as="geometry">
            <mxPoint x="740" y="450" as="sourcePoint" />
            <mxPoint x="790" y="400" as="targetPoint" />
          </mxGeometry>
        </mxCell>
        <mxCell id="pyP9cMPiVNIEUNAZ6Pnh-472" value="" style="endArrow=classic;html=1;rounded=0;exitX=0;exitY=0.5;exitDx=0;exitDy=0;entryX=1;entryY=0.75;entryDx=0;entryDy=0;strokeColor=#140100;" parent="1" source="pyP9cMPiVNIEUNAZ6Pnh-402" target="pyP9cMPiVNIEUNAZ6Pnh-381" edge="1">
          <mxGeometry width="50" height="50" relative="1" as="geometry">
            <mxPoint x="785" y="450" as="sourcePoint" />
            <mxPoint x="835" y="400" as="targetPoint" />
          </mxGeometry>
        </mxCell>
        <mxCell id="pyP9cMPiVNIEUNAZ6Pnh-473" value="" style="endArrow=classic;html=1;rounded=0;exitX=0;exitY=0.5;exitDx=0;exitDy=0;strokeColor=#030000;entryX=1;entryY=0.5;entryDx=0;entryDy=0;" parent="1" source="pyP9cMPiVNIEUNAZ6Pnh-394" edge="1" target="pyP9cMPiVNIEUNAZ6Pnh-381">
          <mxGeometry width="50" height="50" relative="1" as="geometry">
            <mxPoint x="785" y="450" as="sourcePoint" />
            <mxPoint x="855" y="540" as="targetPoint" />
          </mxGeometry>
        </mxCell>
        <mxCell id="pyP9cMPiVNIEUNAZ6Pnh-479" value="2 June 2024" style="text;html=1;align=center;verticalAlign=middle;resizable=0;points=[];autosize=1;strokeColor=none;fillColor=none;" parent="1" vertex="1">
          <mxGeometry x="50" y="470" width="90" height="30" as="geometry" />
        </mxCell>
        <mxCell id="pyP9cMPiVNIEUNAZ6Pnh-480" value="28 May 2024" style="rounded=0;whiteSpace=wrap;html=1;" parent="1" vertex="1">
          <mxGeometry x="969.5" y="430" width="60" height="30" as="geometry" />
        </mxCell>
        <mxCell id="IrrdLkDcd6vfKmMncCQK-1" value="" style="endArrow=classic;html=1;rounded=0;exitX=1;exitY=0.5;exitDx=0;exitDy=0;strokeColor=#FF0000;entryX=0;entryY=0.5;entryDx=0;entryDy=0;" edge="1" parent="1" source="pyP9cMPiVNIEUNAZ6Pnh-253" target="pyP9cMPiVNIEUNAZ6Pnh-266">
          <mxGeometry width="50" height="50" relative="1" as="geometry">
            <mxPoint x="784.5" y="130" as="sourcePoint" />
            <mxPoint x="860" y="50" as="targetPoint" />
          </mxGeometry>
        </mxCell>
        <mxCell id="IrrdLkDcd6vfKmMncCQK-2" value="" style="endArrow=classic;html=1;rounded=0;exitX=1;exitY=0.5;exitDx=0;exitDy=0;strokeColor=#FF0000;entryX=0;entryY=0.5;entryDx=0;entryDy=0;" edge="1" parent="1" source="pyP9cMPiVNIEUNAZ6Pnh-269" target="pyP9cMPiVNIEUNAZ6Pnh-205">
          <mxGeometry width="50" height="50" relative="1" as="geometry">
            <mxPoint x="961.5" y="140" as="sourcePoint" />
            <mxPoint x="1046.5" y="15" as="targetPoint" />
          </mxGeometry>
        </mxCell>
        <mxCell id="IrrdLkDcd6vfKmMncCQK-3" value="" style="endArrow=classic;html=1;rounded=0;exitX=1;exitY=0.5;exitDx=0;exitDy=0;strokeColor=#FF0000;entryX=0;entryY=0.5;entryDx=0;entryDy=0;" edge="1" parent="1" source="pyP9cMPiVNIEUNAZ6Pnh-208" target="pyP9cMPiVNIEUNAZ6Pnh-290">
          <mxGeometry width="50" height="50" relative="1" as="geometry">
            <mxPoint x="1090" y="135" as="sourcePoint" />
            <mxPoint x="1175" y="10" as="targetPoint" />
          </mxGeometry>
        </mxCell>
        <mxCell id="IrrdLkDcd6vfKmMncCQK-4" value="" style="endArrow=classic;html=1;rounded=0;exitX=1;exitY=0.5;exitDx=0;exitDy=0;strokeColor=#FF0000;entryX=0;entryY=0.5;entryDx=0;entryDy=0;" edge="1" parent="1" source="pyP9cMPiVNIEUNAZ6Pnh-293" target="pyP9cMPiVNIEUNAZ6Pnh-274">
          <mxGeometry width="50" height="50" relative="1" as="geometry">
            <mxPoint x="1245" y="130" as="sourcePoint" />
            <mxPoint x="1330" y="5" as="targetPoint" />
          </mxGeometry>
        </mxCell>
        <mxCell id="IrrdLkDcd6vfKmMncCQK-5" value="" style="endArrow=classic;html=1;rounded=0;exitX=0;exitY=0.5;exitDx=0;exitDy=0;entryX=1;entryY=0.5;entryDx=0;entryDy=0;strokeColor=#F70800;" edge="1" parent="1" source="pyP9cMPiVNIEUNAZ6Pnh-378" target="pyP9cMPiVNIEUNAZ6Pnh-437">
          <mxGeometry width="50" height="50" relative="1" as="geometry">
            <mxPoint x="975" y="555" as="sourcePoint" />
            <mxPoint x="929" y="555" as="targetPoint" />
          </mxGeometry>
        </mxCell>
        <mxCell id="IrrdLkDcd6vfKmMncCQK-6" value="" style="endArrow=classic;html=1;rounded=0;entryX=1;entryY=0.5;entryDx=0;entryDy=0;strokeColor=#F70800;exitX=0;exitY=0.5;exitDx=0;exitDy=0;" edge="1" parent="1" source="pyP9cMPiVNIEUNAZ6Pnh-434" target="pyP9cMPiVNIEUNAZ6Pnh-429">
          <mxGeometry width="50" height="50" relative="1" as="geometry">
            <mxPoint x="640" y="630" as="sourcePoint" />
            <mxPoint x="939" y="565" as="targetPoint" />
            <Array as="points" />
          </mxGeometry>
        </mxCell>
        <mxCell id="IrrdLkDcd6vfKmMncCQK-7" value="" style="endArrow=classic;html=1;rounded=0;exitX=0;exitY=0.5;exitDx=0;exitDy=0;entryX=1;entryY=0.5;entryDx=0;entryDy=0;strokeColor=#F70800;" edge="1" parent="1" source="pyP9cMPiVNIEUNAZ6Pnh-426" target="pyP9cMPiVNIEUNAZ6Pnh-421">
          <mxGeometry width="50" height="50" relative="1" as="geometry">
            <mxPoint x="546" y="629" as="sourcePoint" />
            <mxPoint x="500" y="629" as="targetPoint" />
          </mxGeometry>
        </mxCell>
        <mxCell id="IrrdLkDcd6vfKmMncCQK-8" value="" style="endArrow=classic;html=1;rounded=0;exitX=0;exitY=0.5;exitDx=0;exitDy=0;entryX=1;entryY=0.5;entryDx=0;entryDy=0;strokeColor=#F70800;" edge="1" parent="1" source="pyP9cMPiVNIEUNAZ6Pnh-418" target="pyP9cMPiVNIEUNAZ6Pnh-453">
          <mxGeometry width="50" height="50" relative="1" as="geometry">
            <mxPoint x="1005" y="585" as="sourcePoint" />
            <mxPoint x="959" y="585" as="targetPoint" />
          </mxGeometry>
        </mxCell>
        <mxCell id="IrrdLkDcd6vfKmMncCQK-9" value="" style="endArrow=classic;html=1;rounded=0;exitX=0;exitY=0.5;exitDx=0;exitDy=0;entryX=1;entryY=0.5;entryDx=0;entryDy=0;" edge="1" parent="1" source="pyP9cMPiVNIEUNAZ6Pnh-426" target="pyP9cMPiVNIEUNAZ6Pnh-413">
          <mxGeometry width="50" height="50" relative="1" as="geometry">
            <mxPoint x="320" y="288" as="sourcePoint" />
            <mxPoint x="370" y="185" as="targetPoint" />
          </mxGeometry>
        </mxCell>
        <mxCell id="IrrdLkDcd6vfKmMncCQK-10" value="" style="endArrow=classic;html=1;rounded=0;exitX=0;exitY=0.5;exitDx=0;exitDy=0;entryX=1;entryY=0.5;entryDx=0;entryDy=0;" edge="1" parent="1" source="pyP9cMPiVNIEUNAZ6Pnh-410" target="pyP9cMPiVNIEUNAZ6Pnh-453">
          <mxGeometry width="50" height="50" relative="1" as="geometry">
            <mxPoint x="330" y="298" as="sourcePoint" />
            <mxPoint x="380" y="195" as="targetPoint" />
          </mxGeometry>
        </mxCell>
        <mxCell id="IrrdLkDcd6vfKmMncCQK-11" value="" style="endArrow=classic;html=1;rounded=0;exitX=0;exitY=0.5;exitDx=0;exitDy=0;entryX=1;entryY=0.5;entryDx=0;entryDy=0;" edge="1" parent="1" source="pyP9cMPiVNIEUNAZ6Pnh-410" target="pyP9cMPiVNIEUNAZ6Pnh-445">
          <mxGeometry width="50" height="50" relative="1" as="geometry">
            <mxPoint x="340" y="308" as="sourcePoint" />
            <mxPoint x="390" y="205" as="targetPoint" />
          </mxGeometry>
        </mxCell>
        <mxCell id="IrrdLkDcd6vfKmMncCQK-12" value="" style="endArrow=classic;html=1;rounded=0;exitX=0;exitY=0.5;exitDx=0;exitDy=0;entryX=1;entryY=0.5;entryDx=0;entryDy=0;" edge="1" parent="1" source="pyP9cMPiVNIEUNAZ6Pnh-418" target="pyP9cMPiVNIEUNAZ6Pnh-445">
          <mxGeometry width="50" height="50" relative="1" as="geometry">
            <mxPoint x="350" y="318" as="sourcePoint" />
            <mxPoint x="400" y="215" as="targetPoint" />
          </mxGeometry>
        </mxCell>
      </root>
    </mxGraphModel>
  </diagram>
</mxfile>
